<svg version="1.1" id="Layer_1" xmlns="http://www.w3.org/2000/svg" xmlns:xlink="http://www.w3.org/1999/xlink" x="0px" y="0px"
	 width="100%" viewBox="0 0 1080 1080" enable-background="new 0 0 1080 1080" xml:space="preserve">
<path fill="#000000" opacity="1.000000" stroke="none" 
	d="
M625.000000,1081.000000 
	C416.690643,1081.000000 208.881302,1081.000000 1.035974,1081.000000 
	C1.035974,721.065552 1.035974,361.131042 1.035974,1.098287 
	C360.892914,1.098287 720.785889,1.098287 1080.839355,1.098287 
	C1080.839355,360.999939 1080.839355,720.999939 1080.839355,1081.000000 
	C929.130615,1081.000000 777.315308,1081.000000 625.000000,1081.000000 
M582.707886,437.331024 
	C576.513367,419.262024 570.313354,401.194946 564.126526,383.123291 
	C560.682861,373.064423 557.343567,362.968750 553.785339,352.950745 
	C552.527771,349.410034 551.427979,345.220428 546.024963,346.480682 
	C532.956055,349.529053 526.422180,361.297485 530.779724,373.992554 
	C542.163940,407.158875 553.575012,440.316010 564.964661,473.480469 
	C572.409180,495.157562 579.744690,516.872620 587.317871,538.504639 
	C590.005188,546.180725 594.262512,547.838623 601.140564,543.578003 
	C613.412842,535.975769 615.132996,530.819458 611.723999,520.926270 
	C602.200256,493.287628 592.571655,465.685089 582.707886,437.331024 
M497.652985,454.801514 
	C495.272736,461.894958 492.892273,468.988342 490.512177,476.081818 
	C488.446167,482.239380 489.964844,484.377899 496.595215,484.392639 
	C512.761597,484.428558 528.930115,484.246521 545.093933,484.452759 
	C557.259583,484.608002 558.838135,484.520111 555.113342,469.924591 
	C555.031128,469.602295 554.888916,469.295227 554.808472,468.972595 
	C553.523926,463.819855 550.194702,461.647491 544.939697,461.788666 
	C538.944275,461.949799 532.938232,461.924957 526.941956,461.775513 
	C522.147095,461.656067 520.793396,459.621429 522.231384,455.022339 
	C523.918091,449.627625 525.299866,444.091766 527.512939,438.916016 
	C534.291687,423.062439 536.266235,407.264069 527.858093,391.413757 
	C526.878052,389.566254 524.750366,388.327484 523.154724,386.806519 
	C521.677734,388.397217 519.476929,389.740204 518.834778,391.616577 
	C511.728363,412.383698 504.863708,433.233551 497.652985,454.801514 
M469.027008,539.728394 
	C469.406311,544.757507 471.671997,546.565430 476.944489,545.634827 
	C487.432434,543.783569 495.035645,537.817017 498.943329,528.065063 
	C502.640656,518.838074 505.475739,509.252441 508.402954,499.736267 
	C509.654327,495.668121 507.843048,493.426788 503.442688,493.086487 
	C499.964386,492.817505 496.449341,493.063599 492.959198,492.898926 
	C487.436584,492.638397 484.282166,495.458984 482.572052,500.420990 
	C478.135712,513.293579 473.667969,526.155334 469.027008,539.728394 
z"/>
<path fill="#FBFBFB" opacity="1.000000" stroke="none" 
	d="
M582.846191,437.699646 
	C592.571655,465.685089 602.200256,493.287628 611.723999,520.926270 
	C615.132996,530.819458 613.412842,535.975769 601.140564,543.578003 
	C594.262512,547.838623 590.005188,546.180725 587.317871,538.504639 
	C579.744690,516.872620 572.409180,495.157562 564.964661,473.480469 
	C553.575012,440.316010 542.163940,407.158875 530.779724,373.992554 
	C526.422180,361.297485 532.956055,349.529053 546.024963,346.480682 
	C551.427979,345.220428 552.527771,349.410034 553.785339,352.950745 
	C557.343567,362.968750 560.682861,373.064423 564.126526,383.123291 
	C570.313354,401.194946 576.513367,419.262024 582.846191,437.699646 
z"/>
<path fill="#FBFBFB" opacity="1.000000" stroke="none" 
	d="
M497.793335,454.431274 
	C504.863708,433.233551 511.728363,412.383698 518.834778,391.616577 
	C519.476929,389.740204 521.677734,388.397217 523.154724,386.806519 
	C524.750366,388.327484 526.878052,389.566254 527.858093,391.413757 
	C536.266235,407.264069 534.291687,423.062439 527.512939,438.916016 
	C525.299866,444.091766 523.918091,449.627625 522.231384,455.022339 
	C520.793396,459.621429 522.147095,461.656067 526.941956,461.775513 
	C532.938232,461.924957 538.944275,461.949799 544.939697,461.788666 
	C550.194702,461.647491 553.523926,463.819855 554.808472,468.972595 
	C554.888916,469.295227 555.031128,469.602295 555.113342,469.924591 
	C558.838135,484.520111 557.259583,484.608002 545.093933,484.452759 
	C528.930115,484.246521 512.761597,484.428558 496.595215,484.392639 
	C489.964844,484.377899 488.446167,482.239380 490.512177,476.081818 
	C492.892273,468.988342 495.272736,461.894958 497.793335,454.431274 
z"/>
<path fill="#FBFBFB" opacity="1.000000" stroke="none" 
	d="
M469.119873,539.374878 
	C473.667969,526.155334 478.135712,513.293579 482.572052,500.420990 
	C484.282166,495.458984 487.436584,492.638397 492.959198,492.898926 
	C496.449341,493.063599 499.964386,492.817505 503.442688,493.086487 
	C507.843048,493.426788 509.654327,495.668121 508.402954,499.736267 
	C505.475739,509.252441 502.640656,518.838074 498.943329,528.065063 
	C495.035645,537.817017 487.432434,543.783569 476.944489,545.634827 
	C471.671997,546.565430 469.406311,544.757507 469.119873,539.374878 
z"/>
</svg>