<svg version="1.1" id="Layer_1" xmlns="http://www.w3.org/2000/svg" xmlns:xlink="http://www.w3.org/1999/xlink" x="0px" y="0px"
	 width="100%" viewBox="0 0 1200 1200" enable-background="new 0 0 1200 1200" xml:space="preserve">
<path fill="#000000" opacity="1.000000" stroke="none"
	d="
M576.000000,1201.000000
	C384.000000,1201.000000 192.500000,1201.000000 1.000000,1201.000000
	C1.000000,801.000000 1.000000,401.000000 1.000000,1.000000
	C401.000000,1.000000 801.000000,1.000000 1201.000000,1.000000
	C1201.000000,401.000000 1201.000000,801.000000 1201.000000,1201.000000
	C992.833313,1201.000000 784.666687,1201.000000 576.000000,1201.000000
M678.499756,600.000000
	C684.165161,599.999939 689.850952,600.305420 695.491394,599.930115
	C704.533752,599.328369 712.578003,596.821960 716.315063,587.213745
	C719.227722,579.724854 717.010254,576.000366 709.331848,576.000183
	C688.334656,575.999756 667.337341,576.032349 646.340637,575.932678
	C644.824402,575.925476 642.563904,575.407593 641.930786,574.355835
	C639.408325,570.165649 637.393555,565.669739 635.046570,561.000000
	C656.826477,561.000000 677.989929,560.932312 699.152588,561.030212
	C708.891907,561.075256 716.922974,552.946594 716.952454,543.463074
	C717.068420,506.135101 717.065857,468.806305 716.930298,431.478485
	C716.909485,425.754333 714.617554,420.558289 709.253540,417.854462
	C705.630371,416.028168 701.509521,414.294678 697.559814,414.171600
	C683.472046,413.732666 669.362305,413.999969 654.865356,413.999969
	C654.865356,398.051941 654.865356,382.637634 654.865356,367.277008
	C652.050354,367.277008 649.645569,367.277008 646.814209,367.277008
	C646.814209,384.546417 646.814209,401.543152 646.814209,418.246399
	C640.792480,413.980469 639.596802,408.047150 639.877686,401.088196
	C640.332214,389.828461 640.000000,378.537018 640.000000,367.260071
	C637.081604,367.260071 634.677673,367.260071 632.000305,367.260071
	C632.000305,382.821716 631.932068,398.125793 632.106506,413.427124
	C632.123840,414.948334 633.364319,416.679901 634.471191,417.929199
	C644.258179,428.975372 648.414978,441.396576 646.145752,456.367065
	C642.401428,481.068542 616.748230,498.703278 593.131042,494.151245
	C561.996094,488.150177 543.592468,452.466858 563.101685,423.480865
	C569.368347,414.170135 577.836426,407.638977 588.998596,404.926208
	C592.090881,404.174683 593.981445,402.001709 593.997070,398.593445
	C594.008240,396.152588 593.999268,393.711670 593.999268,391.234558
	C590.732056,391.234558 587.973572,391.234558 586.512146,391.234558
	C584.856873,393.974640 584.073303,397.157806 582.388367,397.742096
	C574.036865,400.638245 567.226624,405.599060 560.860413,411.514862
	C559.379517,412.890900 556.914551,413.872040 554.889954,413.894196
	C537.894287,414.080048 520.891541,414.226593 503.899536,413.914886
	C493.717010,413.728149 484.833191,422.773010 484.903473,433.015594
	C485.151581,469.175690 485.345551,505.343872 484.782288,541.496887
	C484.620392,551.887756 494.229462,561.597961 504.375610,561.207275
	C523.178528,560.483276 542.029175,561.000000 560.859985,561.000000
	C562.754639,561.000000 564.649231,561.000000 566.971252,561.000000
	C564.341736,566.300476 561.984680,571.051819 559.529968,576.000000
	C558.625732,576.000000 557.632996,576.000000 556.640198,576.000000
	C534.809814,576.000000 512.979370,576.023682 491.149078,575.970825
	C488.329315,575.964050 485.323639,576.042969 485.152344,579.466858
	C484.994629,582.619751 485.338776,586.129578 486.616760,588.960938
	C490.634613,597.862244 498.914154,599.895569 507.522949,599.919312
	C564.181580,600.075623 620.840820,600.000000 678.499756,600.000000
M791.000000,714.424438
	C791.000000,716.529236 791.000000,718.633972 791.000000,720.728882
	C795.939209,720.728882 800.342651,720.728882 805.000000,720.728882
	C805.000000,705.161865 804.973755,689.864380 805.013489,674.567078
	C805.028442,668.803284 814.525757,662.106140 820.152649,663.549927
	C826.022949,665.056213 829.792786,668.513794 829.931335,676.755249
	C830.176941,691.364868 830.000244,705.981689 830.000244,720.796021
	C834.464783,720.796021 838.532959,720.796021 842.416626,720.796021
	C842.712646,720.473633 842.921265,720.352600 842.921631,720.230896
	C842.957947,707.905396 842.911560,695.579102 843.045288,683.254761
	C843.080444,680.020081 843.438782,676.746094 844.058838,673.570190
	C845.098511,668.245300 851.671082,663.062378 856.986328,663.049866
	C861.974182,663.038025 866.322327,666.565857 868.038696,672.249939
	C868.590088,674.076172 868.949219,676.036621 868.959229,677.937988
	C869.034424,692.201721 869.000183,706.466064 869.000183,720.731628
	C873.600586,720.731628 877.670410,720.731628 881.999451,720.731628
	C881.999451,704.834961 882.465942,689.185669 881.812439,673.583313
	C881.459595,665.159729 877.180664,656.706604 867.708801,654.955933
	C854.733459,652.557800 846.468750,653.273315 838.555359,664.763123
	C834.980713,658.430603 830.723877,653.885437 822.364258,653.774658
	C814.511780,653.670654 808.760681,657.002808 803.158203,662.045776
	C802.834778,654.180176 801.909119,653.715454 791.000000,655.594727
	C791.000000,674.845459 791.000000,694.141846 791.000000,714.424438
M686.562744,658.045837
	C683.718445,651.406433 680.670349,644.845398 678.077209,638.109314
	C674.124207,627.840698 674.256470,627.971558 663.532288,627.887268
	C660.378479,627.862488 659.023621,629.236816 658.053650,631.663940
	C648.589722,655.345276 639.145447,679.034485 629.703796,702.724731
	C627.347168,708.638000 625.020752,714.563232 622.476379,720.999146
	C627.054504,720.999146 630.889709,721.205811 634.678406,720.876404
	C635.853699,720.774170 637.440125,719.440796 637.920715,718.288391
	C640.760925,711.478088 643.213867,704.505371 646.099854,697.716064
	C646.615845,696.502197 648.534363,695.140137 649.827576,695.117432
	C661.323547,694.915833 672.826111,694.914246 684.321777,695.124084
	C685.568726,695.146790 687.390564,696.623718 687.913940,697.862122
	C690.785706,704.657959 693.262085,711.620178 696.072998,718.443298
	C696.512512,719.510193 697.924316,720.806213 698.967957,720.882446
	C702.902588,721.170166 706.870728,720.997986 711.623291,720.997986
	C707.588623,711.023743 703.754333,701.712891 700.052368,692.349609
	C695.630981,681.166931 691.322876,669.939392 686.562744,658.045837
M587.524231,479.984802
	C588.016174,480.611725 588.969849,481.272736 588.926453,481.860138
	C588.599182,486.294556 590.372192,488.293518 594.963501,488.051331
	C599.445679,487.814880 604.007874,488.410797 608.415466,487.791351
	C610.113037,487.552765 611.759155,485.148804 612.889160,483.385651
	C613.507385,482.420990 612.999695,480.734711 612.999695,478.954407
	C619.146484,483.981018 621.570312,484.916351 626.653748,478.906281
	C628.793030,476.377045 631.931824,474.525238 633.498535,471.737366
	C634.584656,469.804901 634.011597,466.764099 633.669006,464.289215
	C633.527222,463.264618 632.051392,462.424652 630.711243,461.000031
	C632.239258,461.000031 633.033142,460.927582 633.809998,461.011902
	C638.654053,461.537476 640.333069,459.237152 640.055115,454.590790
	C639.797119,450.278046 640.420654,445.875519 639.794373,441.639923
	C639.540039,439.919952 637.191406,438.253204 635.437683,437.112823
	C634.472351,436.485107 632.763855,437.000427 631.935242,437.000427
	C633.253601,433.697815 634.452576,430.694183 635.076233,429.131866
	C630.324890,424.333008 626.462891,420.800934 623.063354,416.869049
	C620.805847,414.258026 618.784973,414.352509 616.378845,416.157227
	C615.361450,416.920380 614.496826,417.887177 613.119629,419.176056
	C613.059448,417.979156 613.015503,417.392914 613.002747,416.806000
	C612.862549,410.348907 612.527954,410.009338 606.212952,410.000916
	C602.217712,409.995605 598.219482,410.096130 594.228088,409.972382
	C590.389771,409.853333 588.741272,411.614227 588.989319,415.370209
	C589.059326,416.429382 589.000061,417.497070 589.000061,418.937347
	C581.610229,412.306305 579.467468,414.451996 574.857300,419.601746
	C573.084656,421.581848 571.238770,423.537384 569.195801,425.225098
	C565.874695,427.968658 566.684265,430.905609 568.469788,433.934448
	C569.053833,434.925293 569.966187,435.722626 570.904968,436.813629
	C567.101074,437.443085 562.357666,435.454834 562.057251,441.236450
	C561.789734,446.383026 561.671509,451.588562 562.198975,456.694550
	C562.360168,458.254395 564.691589,459.883545 566.382385,460.884003
	C567.429626,461.503693 569.142151,460.998962 570.847229,460.998962
	C565.172974,468.153198 565.214722,468.725861 571.578735,475.085907
	C573.226624,476.732758 575.053955,478.233582 576.503296,480.038788
	C579.879944,484.244507 583.320618,483.781769 587.524231,479.984802
M421.478149,663.996155
	C428.891937,665.188782 431.539886,670.511902 431.874420,679.821228
	C432.362946,693.416443 432.000000,707.042297 432.000000,720.767151
	C436.525665,720.767151 440.595520,720.767151 443.999695,720.767151
	C443.999695,704.162292 444.431854,687.780884 443.839203,671.436584
	C443.478088,661.477112 433.363037,653.440125 424.061371,653.754211
	C415.946106,654.028259 408.718964,655.411072 401.945770,661.297791
	C401.945770,649.101013 401.945770,637.722656 401.945770,626.231873
	C397.144592,626.231873 392.741180,626.231873 388.234985,626.231873
	C388.234985,657.865356 388.234985,689.266541 388.234985,720.757690
	C392.877106,720.757690 397.280853,720.757690 402.000000,720.757690
	C402.000000,705.887573 401.994843,691.257874 402.002106,676.628235
	C402.005829,669.143921 413.191803,661.557983 421.478149,663.996155
M732.000122,707.491943
	C732.000122,698.497131 732.515503,689.462708 731.826904,680.520935
	C731.331360,674.086182 733.481873,670.005859 738.712891,666.706177
	C743.800964,663.496765 749.430664,662.266479 754.650818,664.480164
	C760.000366,666.748718 762.287781,671.913879 762.047607,678.021057
	C761.825256,683.675720 762.000366,689.346008 762.000366,695.009399
	C762.000366,703.604370 762.000366,712.199280 762.000366,720.702393
	C766.658752,720.702393 770.729126,720.702393 774.999329,720.702393
	C774.999329,704.768433 775.513794,689.108398 774.822876,673.501648
	C774.342102,662.641235 766.470764,653.896912 754.412598,653.844727
	C745.893433,653.807922 738.536072,655.794739 731.790710,662.404602
	C731.790710,649.671631 731.790710,637.937195 731.790710,626.298340
	C727.339539,626.298340 723.269043,626.298340 719.285950,626.298340
	C719.285950,657.989929 719.285950,689.382385 719.285950,720.707886
	C723.648315,720.707886 727.718811,720.707886 732.000122,720.707886
	C732.000122,716.441406 732.000122,712.465088 732.000122,707.491943
M568.681885,676.161560
	C568.681885,691.052063 568.681885,705.942566 568.681885,720.685425
	C573.696228,720.685425 577.764648,720.685425 582.000305,720.685425
	C582.000305,719.388489 582.000305,718.405640 582.000305,717.422852
	C582.000244,703.940430 582.785095,690.401367 581.816162,676.988953
	C580.361572,656.853577 568.589355,650.783569 550.284851,655.102417
	C545.675598,656.190002 541.576172,659.438721 537.257996,661.686279
	C536.641541,654.142517 536.641541,654.142517 525.352722,655.397217
	C525.352722,677.231934 525.352722,699.070679 525.352722,720.643616
	C530.114746,720.643616 534.517761,720.643616 539.000000,720.643616
	C539.000000,705.977234 539.145508,691.664612 538.900024,677.358704
	C538.836853,673.677490 539.683655,670.876526 542.663147,668.871460
	C545.052795,667.263428 547.451599,665.518799 550.098022,664.469971
	C558.984314,660.947998 568.125183,666.371521 568.681885,676.161560
M948.247803,716.973511
	C949.888977,714.800415 954.187988,713.989075 952.530212,710.133484
	C950.664856,705.795105 947.065613,705.475647 942.744812,707.577637
	C938.055725,709.858765 932.924805,712.704651 927.984497,712.708618
	C915.244141,712.718872 905.970886,700.817261 908.716125,687.793884
	C923.692322,687.793884 938.755493,687.793884 954.000000,687.793884
	C954.000000,684.751892 954.156799,682.094910 953.971375,679.461975
	C953.353516,670.688477 950.096130,663.377258 942.651794,658.067261
	C936.586121,653.740662 929.810242,654.203247 922.972900,653.935974
	C912.654724,653.532776 899.951904,661.548584 897.174683,672.967773
	C895.463440,680.003784 894.605957,687.598083 895.245972,694.773987
	C896.230042,705.807617 901.724670,715.254517 912.318237,719.487854
	C924.057007,724.178833 936.161499,723.584534 948.247803,716.973511
M203.603531,639.000000
	C211.690628,639.000000 219.777725,639.000000 228.244904,639.000000
	C228.244904,666.717346 228.244904,693.782654 228.244904,720.671753
	C233.051224,720.671753 237.455582,720.671753 242.247803,720.671753
	C242.247803,693.280884 242.247803,666.216858 242.247803,638.756042
	C252.720184,638.756042 262.797516,638.756042 272.667297,638.756042
	C272.667297,634.938782 272.667297,631.534241 272.667297,628.323975
	C247.600922,628.323975 222.868256,628.323975 198.151611,628.323975
	C198.151611,631.937195 198.151611,635.224182 198.151611,639.000000
	C199.740631,639.000000 201.184525,639.000000 203.603531,639.000000
M288.657440,722.000000
	C297.501801,722.964355 305.214020,720.429138 311.634583,714.027649
	C314.826050,721.822693 315.681396,722.234985 323.667297,720.354248
	C323.667297,698.579529 323.667297,676.853271 323.667297,655.338745
	C319.259338,655.338745 315.188995,655.338745 310.999634,655.338745
	C310.999634,669.989807 311.000275,684.302490 310.999329,698.615173
	C310.998840,706.004822 300.250092,714.127075 292.959167,712.522339
	C283.324432,710.401672 281.307983,704.981140 281.096222,697.287903
	C280.743500,684.474243 281.008698,671.643860 280.986694,658.820496
	C280.984528,657.564514 280.794373,656.308777 280.716797,655.361694
	C276.214996,655.361694 272.144043,655.361694 268.999969,655.361694
	C268.999969,672.282715 268.674194,688.846436 269.149170,705.387268
	C269.359680,712.718323 278.029358,723.027710 288.657440,722.000000
M509.000000,716.362061
	C508.999969,702.201294 509.173767,688.037354 508.922729,673.881042
	C508.806549,667.329834 505.912079,661.945862 500.465668,657.892029
	C495.048157,653.859741 488.983032,653.925232 482.711914,653.941589
	C473.174561,653.966492 465.472565,657.653015 459.098907,664.427979
	C462.044891,671.061646 463.437469,671.526489 470.365295,668.196045
	C472.830688,667.010803 475.252075,665.702515 477.798431,664.723022
	C486.062927,661.544067 491.978973,664.063965 494.923279,670.489868
	C496.714355,674.398743 496.662201,679.152161 497.522003,683.999878
	C495.595856,683.999878 494.627747,684.025330 493.661285,683.995972
	C483.776886,683.695740 474.222382,684.858643 465.451263,689.939453
	C458.158386,694.163940 454.901062,699.812988 456.080322,707.958801
	C457.060272,714.728149 460.760651,719.754456 467.806122,721.247314
	C476.841919,723.161743 485.600891,722.642700 493.457520,717.022522
	C494.817993,716.049316 496.195587,715.099976 497.697083,714.047180
	C499.659576,721.486450 499.659576,721.486450 509.000000,720.640442
	C509.000000,719.565491 509.000000,718.445984 509.000000,716.362061
M985.004272,709.061646
	C984.669434,704.338562 984.116211,699.618774 984.044922,694.891724
	C983.895508,684.982605 983.999695,675.069580 983.999695,664.776001
	C990.707947,664.776001 996.787292,664.776001 1002.682312,664.776001
	C1002.682312,661.636841 1002.682312,658.900391 1002.682312,655.776489
	C996.298706,655.776489 990.226196,655.776489 983.999695,655.776489
	C983.999695,651.724487 983.999695,648.078186 983.999695,644.431885
	C983.999695,640.665833 983.999695,636.899719 983.999695,633.000671
	C982.747864,633.000671 982.093994,633.005798 981.440247,632.999878
	C973.763306,632.930054 973.509338,633.359497 972.937500,641.300354
	C972.582581,646.228699 971.615662,651.113037 970.994446,655.514160
	C966.877319,656.145935 963.540466,656.658020 959.864197,657.222107
	C960.058594,659.624084 959.634827,663.221985 960.506042,663.569092
	C963.682312,664.834412 967.291016,665.014038 971.000000,665.647888
	C971.000000,679.674866 970.623657,693.813477 971.250061,707.907471
	C971.418274,711.692749 973.735535,716.434509 976.638794,718.836731
	C983.587158,724.585876 995.404663,723.234985 1004.450439,716.551208
	C1002.851807,713.944336 1001.228516,711.297180 999.670593,708.756653
	C994.499146,710.878296 990.182678,715.289917 985.004272,709.061646
M340.999695,660.604614
	C340.999695,680.680298 340.999695,700.755981 340.999695,720.682617
	C345.698029,720.682617 349.767761,720.682617 353.999969,720.682617
	C353.999969,707.891418 353.969330,695.416870 354.010651,682.942566
	C354.038635,674.488647 359.514832,667.559265 367.838257,666.083130
	C371.329254,665.463989 375.021606,665.980164 378.471436,665.980164
	C379.029083,663.247375 379.504578,660.887695 379.993134,658.530701
	C380.533020,655.925842 379.238434,654.559204 376.865082,654.030701
	C368.293610,652.122192 360.308624,655.240234 355.189331,662.448792
	C354.640717,663.221313 354.082367,663.986938 353.095642,665.356750
	C352.847534,654.329285 352.847534,654.329285 340.999695,655.343628
	C340.999695,656.740234 340.999695,658.185181 340.999695,660.604614
M624.999390,369.698547
	C623.508789,363.651703 619.126282,368.634857 616.000366,366.632965
	C616.000366,376.844849 616.000366,386.263184 616.000366,396.404205
	C613.683655,395.853668 610.902527,395.982178 610.258118,394.871216
	C609.011780,392.722778 608.969788,389.875732 608.412659,387.243042
	C606.109253,387.243042 603.706421,387.243042 601.000366,387.243042
	C601.000366,391.443878 600.721375,395.436676 601.155823,399.350250
	C601.302429,400.670929 603.048279,402.431274 604.426086,402.882263
	C608.528687,404.225006 612.854858,404.866364 617.012817,406.062683
	C622.317932,407.589050 624.976257,405.736908 624.992188,400.110107
	C625.019897,390.295441 624.999817,380.480652 624.999390,369.698547
M601.058411,367.768951
	C601.058411,371.726257 601.058411,375.683563 601.058411,379.791321
	C603.821045,379.791321 606.224243,379.791321 608.782837,379.791321
	C608.782837,375.503540 608.782837,371.425690 608.782837,367.068268
	C606.283691,367.068268 603.989807,367.068268 601.058411,367.768951
M589.496338,374.999420
	C588.060486,375.076782 586.624695,375.154114 585.293823,375.225800
	C585.293823,378.328827 585.293823,381.070251 585.293823,383.699280
	C588.338013,383.699280 591.079346,383.699280 593.998962,383.699280
	C593.998962,381.585052 593.783508,379.737823 594.046082,377.961273
	C594.520386,374.752228 592.538635,374.886597 589.496338,374.999420
z"/>
<path fill="#F7F3E8" opacity="1.000000" stroke="none"
	d="
M677.999817,600.000000
	C620.840820,600.000000 564.181580,600.075623 507.522949,599.919312
	C498.914154,599.895569 490.634613,597.862244 486.616760,588.960938
	C485.338776,586.129578 484.994629,582.619751 485.152344,579.466858
	C485.323639,576.042969 488.329315,575.964050 491.149078,575.970825
	C512.979370,576.023682 534.809814,576.000000 556.640198,576.000000
	C557.632996,576.000000 558.625732,576.000000 559.529968,576.000000
	C561.984680,571.051819 564.341736,566.300476 566.971252,561.000000
	C564.649231,561.000000 562.754639,561.000000 560.859985,561.000000
	C542.029175,561.000000 523.178528,560.483276 504.375610,561.207275
	C494.229462,561.597961 484.620392,551.887756 484.782288,541.496887
	C485.345551,505.343872 485.151581,469.175690 484.903473,433.015594
	C484.833191,422.773010 493.717010,413.728149 503.899536,413.914886
	C520.891541,414.226593 537.894287,414.080048 554.889954,413.894196
	C556.914551,413.872040 559.379517,412.890900 560.860413,411.514862
	C567.226624,405.599060 574.036865,400.638245 582.388367,397.742096
	C584.073303,397.157806 584.856873,393.974640 586.512146,391.234558
	C587.973572,391.234558 590.732056,391.234558 593.999268,391.234558
	C593.999268,393.711670 594.008240,396.152588 593.997070,398.593445
	C593.981445,402.001709 592.090881,404.174683 588.998596,404.926208
	C577.836426,407.638977 569.368347,414.170135 563.101685,423.480865
	C543.592468,452.466858 561.996094,488.150177 593.131042,494.151245
	C616.748230,498.703278 642.401428,481.068542 646.145752,456.367065
	C648.414978,441.396576 644.258179,428.975372 634.471191,417.929199
	C633.364319,416.679901 632.123840,414.948334 632.106506,413.427124
	C631.932068,398.125793 632.000305,382.821716 632.000305,367.260071
	C634.677673,367.260071 637.081604,367.260071 640.000000,367.260071
	C640.000000,378.537018 640.332214,389.828461 639.877686,401.088196
	C639.596802,408.047150 640.792480,413.980469 646.814209,418.246399
	C646.814209,401.543152 646.814209,384.546417 646.814209,367.277008
	C649.645569,367.277008 652.050354,367.277008 654.865356,367.277008
	C654.865356,382.637634 654.865356,398.051941 654.865356,413.999969
	C669.362305,413.999969 683.472046,413.732666 697.559814,414.171600
	C701.509521,414.294678 705.630371,416.028168 709.253540,417.854462
	C714.617554,420.558289 716.909485,425.754333 716.930298,431.478485
	C717.065857,468.806305 717.068420,506.135101 716.952454,543.463074
	C716.922974,552.946594 708.891907,561.075256 699.152588,561.030212
	C677.989929,560.932312 656.826477,561.000000 635.046570,561.000000
	C637.393555,565.669739 639.408325,570.165649 641.930786,574.355835
	C642.563904,575.407593 644.824402,575.925476 646.340637,575.932678
	C667.337341,576.032349 688.334656,575.999756 709.331848,576.000183
	C717.010254,576.000366 719.227722,579.724854 716.315063,587.213745
	C712.578003,596.821960 704.533752,599.328369 695.491394,599.930115
	C689.850952,600.305420 684.165161,599.999939 677.999817,600.000000
M658.500000,530.000000
	C669.929382,530.000000 681.358765,530.000000 692.704834,530.000000
	C692.704834,499.014374 692.704834,468.613678 692.704834,438.301514
	C680.003662,438.301514 667.599976,438.301514 656.338989,438.301514
	C654.852844,448.570099 654.226135,458.579376 651.791565,468.127625
	C649.350464,477.701233 642.751892,485.045563 635.159363,491.418610
	C627.370361,497.956512 618.361755,501.779236 608.476013,502.887329
	C591.311340,504.811340 575.627930,500.551971 563.040222,488.376221
	C548.911621,474.709991 544.825623,457.318268 547.354187,438.291016
	C534.025330,438.291016 521.621765,438.291016 509.294250,438.291016
	C509.294250,468.983673 509.294250,499.384338 509.294250,530.000000
	C558.892151,530.000000 608.196106,530.000000 658.500000,530.000000
M644.500000,538.000000
	C598.504944,538.000000 552.509888,538.002380 506.514832,537.997131
	C500.471954,537.996399 500.003662,537.519531 500.002625,531.406616
	C499.997192,499.576782 499.990967,467.746948 500.008575,435.917114
	C500.011688,430.279846 501.283905,429.020538 506.931519,429.008423
	C519.430054,428.981537 531.943237,428.647125 544.420776,429.160126
	C550.030212,429.390747 551.841980,426.807312 553.008484,422.000977
	C536.867798,422.000977 521.041626,421.828125 505.222260,422.081055
	C498.325623,422.191345 493.034760,427.732208 493.025177,434.216522
	C492.972656,469.712555 493.046143,505.208801 492.957306,540.704651
	C492.941498,547.028015 498.910492,553.056763 505.423645,553.048523
	C569.083191,552.968018 632.742859,553.011963 696.402527,552.983704
	C703.659546,552.980469 708.976440,547.644836 708.983826,540.378540
	C709.019653,505.049133 709.015015,469.719696 708.983704,434.390259
	C708.979004,429.078430 705.702759,424.618347 700.636780,423.050385
	C698.656860,422.437561 696.520935,422.058929 694.452820,422.044952
	C681.350952,421.956451 668.248169,422.000031 655.309326,422.000031
	C655.309326,424.668671 655.309326,426.737823 655.309326,429.000092
	C668.764832,429.000092 681.912048,428.982452 695.059082,429.008331
	C700.711365,429.019440 701.988220,430.279144 701.991333,435.907654
	C702.009155,467.904144 701.945618,499.900787 702.062256,531.896851
	C702.078552,536.363159 700.547791,538.109253 695.993835,538.065063
	C679.163940,537.901611 662.331482,538.000000 644.500000,538.000000
M681.455688,592.000000
	C690.435669,590.957947 700.312988,593.326111 708.535706,585.083740
	C636.140259,585.083740 564.860168,585.083740 492.507263,585.083740
	C494.133118,586.731323 495.103424,588.620239 496.381317,588.858398
	C503.220795,590.132690 510.133301,591.836304 517.027283,591.866699
	C571.506531,592.106445 625.987427,592.000000 681.455688,592.000000
M577.619507,576.000061
	C595.679260,576.000061 613.739014,576.000061 632.424866,576.000061
	C630.045166,571.157349 628.134338,566.922058 625.860535,562.891541
	C625.309326,561.914429 623.565552,561.090393 622.362549,561.080017
	C608.046448,560.956604 593.728699,560.965942 579.412292,561.068359
	C578.302002,561.076294 576.653076,561.750122 576.184326,562.617126
	C573.913696,566.816895 571.960876,571.188293 569.655273,576.000061
	C572.396667,576.000061 574.528137,576.000061 577.619507,576.000061
z"/>
<path fill="#F7F3E8" opacity="1.000000" stroke="none"
	d="
M791.000000,713.931274
	C791.000000,694.141846 791.000000,674.845459 791.000000,655.594727
	C801.909119,653.715454 802.834778,654.180176 803.158203,662.045776
	C808.760681,657.002808 814.511780,653.670654 822.364258,653.774658
	C830.723877,653.885437 834.980713,658.430603 838.556641,664.761230
	C846.468750,653.273315 854.733459,652.557800 867.708801,654.955933
	C877.180664,656.706604 881.459595,665.159729 881.812439,673.583313
	C882.465942,689.185669 881.999451,704.834961 881.999451,720.731628
	C877.670410,720.731628 873.600586,720.731628 869.000183,720.731628
	C869.000183,706.466064 869.034424,692.201721 868.959229,677.937988
	C868.949219,676.036621 868.590088,674.076172 868.038696,672.249939
	C866.322327,666.565857 861.974182,663.038025 856.986328,663.049866
	C851.671082,663.062378 845.098511,668.245300 844.058838,673.570190
	C843.438782,676.746094 843.080444,680.020081 843.045288,683.254761
	C842.911560,695.579102 842.957947,707.905396 842.921631,720.230896
	C842.921265,720.352600 842.712646,720.473633 842.416626,720.796021
	C838.532959,720.796021 834.464783,720.796021 830.000244,720.796021
	C830.000244,705.981689 830.176941,691.364868 829.931335,676.755249
	C829.792786,668.513794 826.022949,665.056213 820.152649,663.549927
	C814.525757,662.106140 805.028442,668.803284 805.013489,674.567078
	C804.973755,689.864380 805.000000,705.161865 805.000000,720.728882
	C800.342651,720.728882 795.939209,720.728882 791.000000,720.728882
	C791.000000,718.633972 791.000000,716.529236 791.000000,713.931274
z"/>
<path fill="#F7F3E8" opacity="1.000000" stroke="none"
	d="
M686.764282,658.388550
	C691.322876,669.939392 695.630981,681.166931 700.052368,692.349609
	C703.754333,701.712891 707.588623,711.023743 711.623291,720.997986
	C706.870728,720.997986 702.902588,721.170166 698.967957,720.882446
	C697.924316,720.806213 696.512512,719.510193 696.072998,718.443298
	C693.262085,711.620178 690.785706,704.657959 687.913940,697.862122
	C687.390564,696.623718 685.568726,695.146790 684.321777,695.124084
	C672.826111,694.914246 661.323547,694.915833 649.827576,695.117432
	C648.534363,695.140137 646.615845,696.502197 646.099854,697.716064
	C643.213867,704.505371 640.760925,711.478088 637.920715,718.288391
	C637.440125,719.440796 635.853699,720.774170 634.678406,720.876404
	C630.889709,721.205811 627.054504,720.999146 622.476379,720.999146
	C625.020752,714.563232 627.347168,708.638000 629.703796,702.724731
	C639.145447,679.034485 648.589722,655.345276 658.053650,631.663940
	C659.023621,629.236816 660.378479,627.862488 663.532288,627.887268
	C674.256470,627.971558 674.124207,627.840698 678.077209,638.109314
	C680.670349,644.845398 683.718445,651.406433 686.764282,658.388550
M668.954590,648.575073
	C668.398376,647.349487 667.842102,646.123840 666.819885,643.871460
	C663.932556,651.712891 661.521790,658.585083 658.872375,665.363953
	C656.237549,672.105652 653.363098,678.753662 650.433411,685.829895
	C661.894470,685.829895 672.328552,685.829895 683.401855,685.829895
	C678.520081,673.439331 673.780273,661.409241 668.954590,648.575073
z"/>
<path fill="#F7F3E8" opacity="1.000000" stroke="none"
	d="
M587.248047,480.262390
	C583.320618,483.781769 579.879944,484.244507 576.503296,480.038788
	C575.053955,478.233582 573.226624,476.732758 571.578735,475.085907
	C565.214722,468.725861 565.172974,468.153198 570.847229,460.998962
	C569.142151,460.998962 567.429626,461.503693 566.382385,460.884003
	C564.691589,459.883545 562.360168,458.254395 562.198975,456.694550
	C561.671509,451.588562 561.789734,446.383026 562.057251,441.236450
	C562.357666,435.454834 567.101074,437.443085 570.904968,436.813629
	C569.966187,435.722626 569.053833,434.925293 568.469788,433.934448
	C566.684265,430.905609 565.874695,427.968658 569.195801,425.225098
	C571.238770,423.537384 573.084656,421.581848 574.857300,419.601746
	C579.467468,414.451996 581.610229,412.306305 589.000061,418.937347
	C589.000061,417.497070 589.059326,416.429382 588.989319,415.370209
	C588.741272,411.614227 590.389771,409.853333 594.228088,409.972382
	C598.219482,410.096130 602.217712,409.995605 606.212952,410.000916
	C612.527954,410.009338 612.862549,410.348907 613.002747,416.806000
	C613.015503,417.392914 613.059448,417.979156 613.119629,419.176056
	C614.496826,417.887177 615.361450,416.920380 616.378845,416.157227
	C618.784973,414.352509 620.805847,414.258026 623.063354,416.869049
	C626.462891,420.800934 630.324890,424.333008 635.076233,429.131866
	C634.452576,430.694183 633.253601,433.697815 631.935242,437.000427
	C632.763855,437.000427 634.472351,436.485107 635.437683,437.112823
	C637.191406,438.253204 639.540039,439.919952 639.794373,441.639923
	C640.420654,445.875519 639.797119,450.278046 640.055115,454.590790
	C640.333069,459.237152 638.654053,461.537476 633.809998,461.011902
	C633.033142,460.927582 632.239258,461.000031 630.711243,461.000031
	C632.051392,462.424652 633.527222,463.264618 633.669006,464.289215
	C634.011597,466.764099 634.584656,469.804901 633.498535,471.737366
	C631.931824,474.525238 628.793030,476.377045 626.653748,478.906281
	C621.570312,484.916351 619.146484,483.981018 612.999695,478.954407
	C612.999695,480.734711 613.507385,482.420990 612.889160,483.385651
	C611.759155,485.148804 610.113037,487.552765 608.415466,487.791351
	C604.007874,488.410797 599.445679,487.814880 594.963501,488.051331
	C590.372192,488.293518 588.599182,486.294556 588.926453,481.860138
	C588.969849,481.272736 588.016174,480.611725 587.248047,480.262390
M625.948425,444.998749
	C619.840393,442.139099 619.344543,435.252808 624.564148,429.902710
	C623.199280,428.284088 621.839600,426.671631 620.353333,424.909119
	C618.085693,428.295563 615.359924,429.713470 611.380981,428.814270
	C605.503540,427.485992 603.602173,423.450958 603.784546,418.169617
	C601.642151,418.169617 600.013733,418.169617 598.087463,418.169617
	C597.931274,422.142883 597.947021,426.161621 593.404541,427.867706
	C588.810303,429.593201 584.575317,429.885254 581.612061,425.057465
	C579.904480,426.669983 578.458618,428.035370 576.607178,429.783783
	C582.325378,432.416534 581.206970,436.716675 580.000183,441.189850
	C578.495972,446.765045 573.665771,444.351410 570.217651,445.189240
	C570.217651,447.557434 570.217651,449.644531 570.217651,451.731659
	C570.535645,451.363434 570.853638,450.995209 571.171631,450.626984
	C573.917419,452.376221 577.489868,453.544983 579.219360,456.007874
	C581.954834,459.903290 582.317383,464.539673 577.570740,468.122925
	C579.255798,469.728699 580.635925,471.043854 581.985535,472.329987
	C588.904419,465.930359 596.007812,468.968567 598.742310,478.817017
	C600.414612,478.817017 602.044434,478.817017 603.674255,478.817017
	C603.350342,478.505371 603.026367,478.193756 602.702454,477.882111
	C604.530762,475.367981 605.849060,471.991211 608.305176,470.539093
	C612.120422,468.283508 616.691589,467.474854 619.627319,471.881317
	C621.446533,470.563019 623.007141,469.432129 624.934998,468.035095
	C619.404175,464.675293 620.942444,460.610657 622.125671,456.684937
	C623.571655,451.887573 627.620361,451.809113 631.659058,451.956207
	C631.659058,449.469421 631.659058,447.263519 631.659058,445.000061
	C629.821350,445.000061 628.324402,445.000061 625.948425,444.998749
z"/>
<path fill="#F7F3E8" opacity="1.000000" stroke="none"
	d="
M421.073547,663.976196
	C413.191803,661.557983 402.005829,669.143921 402.002106,676.628235
	C401.994843,691.257874 402.000000,705.887573 402.000000,720.757690
	C397.280853,720.757690 392.877106,720.757690 388.234985,720.757690
	C388.234985,689.266541 388.234985,657.865356 388.234985,626.231873
	C392.741180,626.231873 397.144592,626.231873 401.945770,626.231873
	C401.945770,637.722656 401.945770,649.101013 401.945770,661.297791
	C408.718964,655.411072 415.946106,654.028259 424.061371,653.754211
	C433.363037,653.440125 443.478088,661.477112 443.839203,671.436584
	C444.431854,687.780884 443.999695,704.162292 443.999695,720.767151
	C440.595520,720.767151 436.525665,720.767151 432.000000,720.767151
	C432.000000,707.042297 432.362946,693.416443 431.874420,679.821228
	C431.539886,670.511902 428.891937,665.188782 421.073547,663.976196
z"/>
<path fill="#F7F3E8" opacity="1.000000" stroke="none"
	d="
M732.000122,707.990356
	C732.000122,712.465088 732.000122,716.441406 732.000122,720.707886
	C727.718811,720.707886 723.648315,720.707886 719.285950,720.707886
	C719.285950,689.382385 719.285950,657.989929 719.285950,626.298340
	C723.269043,626.298340 727.339539,626.298340 731.790710,626.298340
	C731.790710,637.937195 731.790710,649.671631 731.790710,662.404602
	C738.536072,655.794739 745.893433,653.807922 754.412598,653.844727
	C766.470764,653.896912 774.342102,662.641235 774.822876,673.501648
	C775.513794,689.108398 774.999329,704.768433 774.999329,720.702393
	C770.729126,720.702393 766.658752,720.702393 762.000366,720.702393
	C762.000366,712.199280 762.000366,703.604370 762.000366,695.009399
	C762.000366,689.346008 761.825256,683.675720 762.047607,678.021057
	C762.287781,671.913879 760.000366,666.748718 754.650818,664.480164
	C749.430664,662.266479 743.800964,663.496765 738.712891,666.706177
	C733.481873,670.005859 731.331360,674.086182 731.826904,680.520935
	C732.515503,689.462708 732.000122,698.497131 732.000122,707.990356
z"/>
<path fill="#F7F3E8" opacity="1.000000" stroke="none"
	d="
M568.375732,675.841675
	C568.125183,666.371521 558.984314,660.947998 550.098022,664.469971
	C547.451599,665.518799 545.052795,667.263428 542.663147,668.871460
	C539.683655,670.876526 538.836853,673.677490 538.900024,677.358704
	C539.145508,691.664612 539.000000,705.977234 539.000000,720.643616
	C534.517761,720.643616 530.114746,720.643616 525.352722,720.643616
	C525.352722,699.070679 525.352722,677.231934 525.352722,655.397217
	C536.641541,654.142517 536.641541,654.142517 537.257996,661.686279
	C541.576172,659.438721 545.675598,656.190002 550.284851,655.102417
	C568.589355,650.783569 580.361572,656.853577 581.816162,676.988953
	C582.785095,690.401367 582.000244,703.940430 582.000305,717.422852
	C582.000305,718.405640 582.000305,719.388489 582.000305,720.685425
	C577.764648,720.685425 573.696228,720.685425 568.681885,720.685425
	C568.681885,705.942566 568.681885,691.052063 568.375732,675.841675
z"/>
<path fill="#F7F3E8" opacity="1.000000" stroke="none"
	d="
M947.868408,717.012939
	C936.161499,723.584534 924.057007,724.178833 912.318237,719.487854
	C901.724670,715.254517 896.230042,705.807617 895.245972,694.773987
	C894.605957,687.598083 895.463440,680.003784 897.174683,672.967773
	C899.951904,661.548584 912.654724,653.532776 922.972900,653.935974
	C929.810242,654.203247 936.586121,653.740662 942.651794,658.067261
	C950.096130,663.377258 953.353516,670.688477 953.971375,679.461975
	C954.156799,682.094910 954.000000,684.751892 954.000000,687.793884
	C938.755493,687.793884 923.692322,687.793884 908.716125,687.793884
	C905.970886,700.817261 915.244141,712.718872 927.984497,712.708618
	C932.924805,712.704651 938.055725,709.858765 942.744812,707.577637
	C947.065613,705.475647 950.664856,705.795105 952.530212,710.133484
	C954.187988,713.989075 949.888977,714.800415 947.868408,717.012939
M941.999207,678.648499
	C941.365723,669.835266 934.469849,662.469360 926.457336,663.136108
	C917.989136,663.840881 909.118530,668.605713 908.533142,680.999146
	C918.852722,680.999146 929.164429,681.032715 939.474854,680.936646
	C940.318176,680.928711 941.153198,680.037231 941.999207,678.648499
z"/>
<path fill="#F7F3E8" opacity="1.000000" stroke="none"
	d="
M203.115967,639.000000
	C201.184525,639.000000 199.740631,639.000000 198.151611,639.000000
	C198.151611,635.224182 198.151611,631.937195 198.151611,628.323975
	C222.868256,628.323975 247.600922,628.323975 272.667297,628.323975
	C272.667297,631.534241 272.667297,634.938782 272.667297,638.756042
	C262.797516,638.756042 252.720184,638.756042 242.247803,638.756042
	C242.247803,666.216858 242.247803,693.280884 242.247803,720.671753
	C237.455582,720.671753 233.051224,720.671753 228.244904,720.671753
	C228.244904,693.782654 228.244904,666.717346 228.244904,639.000000
	C219.777725,639.000000 211.690628,639.000000 203.115967,639.000000
z"/>
<path fill="#F7F3E8" opacity="1.000000" stroke="none"
	d="
M288.192261,722.000000
	C278.029358,723.027710 269.359680,712.718323 269.149170,705.387268
	C268.674194,688.846436 268.999969,672.282715 268.999969,655.361694
	C272.144043,655.361694 276.214996,655.361694 280.716797,655.361694
	C280.794373,656.308777 280.984528,657.564514 280.986694,658.820496
	C281.008698,671.643860 280.743500,684.474243 281.096222,697.287903
	C281.307983,704.981140 283.324432,710.401672 292.959167,712.522339
	C300.250092,714.127075 310.998840,706.004822 310.999329,698.615173
	C311.000275,684.302490 310.999634,669.989807 310.999634,655.338745
	C315.188995,655.338745 319.259338,655.338745 323.667297,655.338745
	C323.667297,676.853271 323.667297,698.579529 323.667297,720.354248
	C315.681396,722.234985 314.826050,721.822693 311.634583,714.027649
	C305.214020,720.429138 297.501801,722.964355 288.192261,722.000000
z"/>
<path fill="#F7F3E8" opacity="1.000000" stroke="none"
	d="
M509.000000,716.844238
	C509.000000,718.445984 509.000000,719.565491 509.000000,720.640442
	C499.659576,721.486450 499.659576,721.486450 497.697083,714.047180
	C496.195587,715.099976 494.817993,716.049316 493.457520,717.022522
	C485.600891,722.642700 476.841919,723.161743 467.806122,721.247314
	C460.760651,719.754456 457.060272,714.728149 456.080322,707.958801
	C454.901062,699.812988 458.158386,694.163940 465.451263,689.939453
	C474.222382,684.858643 483.776886,683.695740 493.661285,683.995972
	C494.627747,684.025330 495.595856,683.999878 497.522003,683.999878
	C496.662201,679.152161 496.714355,674.398743 494.923279,670.489868
	C491.978973,664.063965 486.062927,661.544067 477.798431,664.723022
	C475.252075,665.702515 472.830688,667.010803 470.365295,668.196045
	C463.437469,671.526489 462.044891,671.061646 459.098907,664.427979
	C465.472565,657.653015 473.174561,653.966492 482.711914,653.941589
	C488.983032,653.925232 495.048157,653.859741 500.465668,657.892029
	C505.912079,661.945862 508.806549,667.329834 508.922729,673.881042
	C509.173767,688.037354 508.999969,702.201294 509.000000,716.844238
M489.420563,692.000000
	C484.190186,693.346497 478.763123,694.201294 473.789795,696.190430
	C469.590118,697.870239 468.116730,701.943787 469.044708,706.444031
	C469.844604,710.323181 472.257355,712.976135 476.369446,712.918762
	C480.204193,712.865295 484.501129,713.045166 487.732483,711.414185
	C491.329254,709.598755 495.033386,706.354797 496.680176,702.801025
	C498.183441,699.557007 496.998810,695.067444 496.998810,690.734131
	C494.408752,691.225403 492.367310,691.612671 489.420563,692.000000
z"/>
<path fill="#F7F3E8" opacity="1.000000" stroke="none"
	d="
M985.153442,709.444092
	C990.182678,715.289917 994.499146,710.878296 999.670593,708.756653
	C1001.228516,711.297180 1002.851807,713.944336 1004.450439,716.551208
	C995.404663,723.234985 983.587158,724.585876 976.638794,718.836731
	C973.735535,716.434509 971.418274,711.692749 971.250061,707.907471
	C970.623657,693.813477 971.000000,679.674866 971.000000,665.647888
	C967.291016,665.014038 963.682312,664.834412 960.506042,663.569092
	C959.634827,663.221985 960.058594,659.624084 959.864197,657.222107
	C963.540466,656.658020 966.877319,656.145935 970.994446,655.514160
	C971.615662,651.113037 972.582581,646.228699 972.937500,641.300354
	C973.509338,633.359497 973.763306,632.930054 981.440247,632.999878
	C982.093994,633.005798 982.747864,633.000671 983.999695,633.000671
	C983.999695,636.899719 983.999695,640.665833 983.999695,644.431885
	C983.999695,648.078186 983.999695,651.724487 983.999695,655.776489
	C990.226196,655.776489 996.298706,655.776489 1002.682312,655.776489
	C1002.682312,658.900391 1002.682312,661.636841 1002.682312,664.776001
	C996.787292,664.776001 990.707947,664.776001 983.999695,664.776001
	C983.999695,675.069580 983.895508,684.982605 984.044922,694.891724
	C984.116211,699.618774 984.669434,704.338562 985.153442,709.444092
z"/>
<path fill="#F7F3E8" opacity="1.000000" stroke="none"
	d="
M340.999695,660.117371
	C340.999695,658.185181 340.999695,656.740234 340.999695,655.343628
	C352.847534,654.329285 352.847534,654.329285 353.095642,665.356750
	C354.082367,663.986938 354.640717,663.221313 355.189331,662.448792
	C360.308624,655.240234 368.293610,652.122192 376.865082,654.030701
	C379.238434,654.559204 380.533020,655.925842 379.993134,658.530701
	C379.504578,660.887695 379.029083,663.247375 378.471436,665.980164
	C375.021606,665.980164 371.329254,665.463989 367.838257,666.083130
	C359.514832,667.559265 354.038635,674.488647 354.010651,682.942566
	C353.969330,695.416870 353.999969,707.891418 353.999969,720.682617
	C349.767761,720.682617 345.698029,720.682617 340.999695,720.682617
	C340.999695,700.755981 340.999695,680.680298 340.999695,660.117371
z"/>
<path fill="#F7F3E8" opacity="1.000000" stroke="none"
	d="
M624.999634,370.182220
	C624.999817,380.480652 625.019897,390.295441 624.992188,400.110107
	C624.976257,405.736908 622.317932,407.589050 617.012817,406.062683
	C612.854858,404.866364 608.528687,404.225006 604.426086,402.882263
	C603.048279,402.431274 601.302429,400.670929 601.155823,399.350250
	C600.721375,395.436676 601.000366,391.443878 601.000366,387.243042
	C603.706421,387.243042 606.109253,387.243042 608.412659,387.243042
	C608.969788,389.875732 609.011780,392.722778 610.258118,394.871216
	C610.902527,395.982178 613.683655,395.853668 616.000366,396.404205
	C616.000366,386.263184 616.000366,376.844849 616.000366,366.632965
	C619.126282,368.634857 623.508789,363.651703 624.999634,370.182220
z"/>
<path fill="#F7F3E8" opacity="1.000000" stroke="none"
	d="
M601.377197,367.418610
	C603.989807,367.068268 606.283691,367.068268 608.782837,367.068268
	C608.782837,371.425690 608.782837,375.503540 608.782837,379.791321
	C606.224243,379.791321 603.821045,379.791321 601.058411,379.791321
	C601.058411,375.683563 601.058411,371.726257 601.377197,367.418610
z"/>
<path fill="#F7F3E8" opacity="1.000000" stroke="none"
	d="
M589.968628,374.999390
	C592.538635,374.886597 594.520386,374.752228 594.046082,377.961273
	C593.783508,379.737823 593.998962,381.585052 593.998962,383.699280
	C591.079346,383.699280 588.338013,383.699280 585.293823,383.699280
	C585.293823,381.070251 585.293823,378.328827 585.293823,375.225800
	C586.624695,375.154114 588.060486,375.076782 589.968628,374.999390
z"/>
<path fill="#000000" opacity="1.000000" stroke="none"
	d="
M658.000000,530.000000
	C608.196106,530.000000 558.892151,530.000000 509.294250,530.000000
	C509.294250,499.384338 509.294250,468.983673 509.294250,438.291016
	C521.621765,438.291016 534.025330,438.291016 547.354187,438.291016
	C544.825623,457.318268 548.911621,474.709991 563.040222,488.376221
	C575.627930,500.551971 591.311340,504.811340 608.476013,502.887329
	C618.361755,501.779236 627.370361,497.956512 635.159363,491.418610
	C642.751892,485.045563 649.350464,477.701233 651.791565,468.127625
	C654.226135,458.579376 654.852844,448.570099 656.338989,438.301514
	C667.599976,438.301514 680.003662,438.301514 692.704834,438.301514
	C692.704834,468.613678 692.704834,499.014374 692.704834,530.000000
	C681.358765,530.000000 669.929382,530.000000 658.000000,530.000000
M660.039673,511.639374
	C661.765320,513.794373 663.490967,515.949402 665.300781,518.209534
	C671.772278,511.725464 677.970764,505.454712 684.243225,499.258820
	C686.918396,496.616272 686.816589,494.265961 684.154602,491.656708
	C677.885559,485.511841 671.720154,479.261169 665.991028,473.531555
	C663.813538,475.334534 661.782043,477.016632 659.734741,478.711853
	C665.512146,484.282257 670.998901,489.572388 676.560608,494.934814
	C670.784912,500.707916 665.613098,505.877380 660.039673,511.639374
M526.999756,482.499908
	C523.945435,485.566711 520.944031,488.688812 517.820679,491.683594
	C515.119812,494.273376 515.112305,496.649414 517.783203,499.285004
	C524.050598,505.469513 530.232117,511.741119 535.534607,517.060730
	C537.869812,515.285339 540.080566,513.604553 542.902588,511.459137
	C537.135010,505.743561 531.776184,500.432953 525.523743,494.236877
	C530.865723,489.016724 536.296570,483.709778 541.669800,478.459076
	C540.108276,476.827118 538.309814,474.947571 536.404785,472.956604
	C533.342041,476.066956 530.420959,479.033508 526.999756,482.499908
z"/>
<path fill="#000000" opacity="1.000000" stroke="none"
	d="
M645.000000,538.000000
	C662.331482,538.000000 679.163940,537.901611 695.993835,538.065063
	C700.547791,538.109253 702.078552,536.363159 702.062256,531.896851
	C701.945618,499.900787 702.009155,467.904144 701.991333,435.907654
	C701.988220,430.279144 700.711365,429.019440 695.059082,429.008331
	C681.912048,428.982452 668.764832,429.000092 655.309326,429.000092
	C655.309326,426.737823 655.309326,424.668671 655.309326,422.000031
	C668.248169,422.000031 681.350952,421.956451 694.452820,422.044952
	C696.520935,422.058929 698.656860,422.437561 700.636780,423.050385
	C705.702759,424.618347 708.979004,429.078430 708.983704,434.390259
	C709.015015,469.719696 709.019653,505.049133 708.983826,540.378540
	C708.976440,547.644836 703.659546,552.980469 696.402527,552.983704
	C632.742859,553.011963 569.083191,552.968018 505.423645,553.048523
	C498.910492,553.056763 492.941498,547.028015 492.957306,540.704651
	C493.046143,505.208801 492.972656,469.712555 493.025177,434.216522
	C493.034760,427.732208 498.325623,422.191345 505.222260,422.081055
	C521.041626,421.828125 536.867798,422.000977 553.008484,422.000977
	C551.841980,426.807312 550.030212,429.390747 544.420776,429.160126
	C531.943237,428.647125 519.430054,428.981537 506.931519,429.008423
	C501.283905,429.020538 500.011688,430.279846 500.008575,435.917114
	C499.990967,467.746948 499.997192,499.576782 500.002625,531.406616
	C500.003662,537.519531 500.471954,537.996399 506.514832,537.997131
	C552.509888,538.002380 598.504944,538.000000 645.000000,538.000000
z"/>
<path fill="#000000" opacity="1.000000" stroke="none"
	d="
M680.961731,592.000000
	C625.987427,592.000000 571.506531,592.106445 517.027283,591.866699
	C510.133301,591.836304 503.220795,590.132690 496.381317,588.858398
	C495.103424,588.620239 494.133118,586.731323 492.507263,585.083740
	C564.860168,585.083740 636.140259,585.083740 708.535706,585.083740
	C700.312988,593.326111 690.435669,590.957947 680.961731,592.000000
z"/>
<path fill="#000000" opacity="1.000000" stroke="none"
	d="
M577.139526,576.000061
	C574.528137,576.000061 572.396667,576.000061 569.655273,576.000061
	C571.960876,571.188293 573.913696,566.816895 576.184326,562.617126
	C576.653076,561.750122 578.302002,561.076294 579.412292,561.068359
	C593.728699,560.965942 608.046448,560.956604 622.362549,561.080017
	C623.565552,561.090393 625.309326,561.914429 625.860535,562.891541
	C628.134338,566.922058 630.045166,571.157349 632.424866,576.000061
	C613.739014,576.000061 595.679260,576.000061 577.139526,576.000061
z"/>
<path fill="#000000" opacity="1.000000" stroke="none"
	d="
M668.997559,648.977112
	C673.780273,661.409241 678.520081,673.439331 683.401855,685.829895
	C672.328552,685.829895 661.894470,685.829895 650.433411,685.829895
	C653.363098,678.753662 656.237549,672.105652 658.872375,665.363953
	C661.521790,658.585083 663.932556,651.712891 666.819885,643.871460
	C667.842102,646.123840 668.398376,647.349487 668.997559,648.977112
z"/>
<path fill="#000000" opacity="1.000000" stroke="none"
	d="
M626.387939,444.999390
	C628.324402,445.000061 629.821350,445.000061 631.659058,445.000061
	C631.659058,447.263519 631.659058,449.469421 631.659058,451.956207
	C627.620361,451.809113 623.571655,451.887573 622.125671,456.684937
	C620.942444,460.610657 619.404175,464.675293 624.934998,468.035095
	C623.007141,469.432129 621.446533,470.563019 619.627319,471.881317
	C616.691589,467.474854 612.120422,468.283508 608.305176,470.539093
	C605.849060,471.991211 604.530762,475.367981 602.702454,477.882111
	C603.026367,478.193756 603.350342,478.505371 603.674255,478.817017
	C602.044434,478.817017 600.414612,478.817017 598.742310,478.817017
	C596.007812,468.968567 588.904419,465.930359 581.985535,472.329987
	C580.635925,471.043854 579.255798,469.728699 577.570740,468.122925
	C582.317383,464.539673 581.954834,459.903290 579.219360,456.007874
	C577.489868,453.544983 573.917419,452.376221 571.171631,450.626984
	C570.853638,450.995209 570.535645,451.363434 570.217651,451.731659
	C570.217651,449.644531 570.217651,447.557434 570.217651,445.189240
	C573.665771,444.351410 578.495972,446.765045 580.000183,441.189850
	C581.206970,436.716675 582.325378,432.416534 576.607178,429.783783
	C578.458618,428.035370 579.904480,426.669983 581.612061,425.057465
	C584.575317,429.885254 588.810303,429.593201 593.404541,427.867706
	C597.947021,426.161621 597.931274,422.142883 598.087463,418.169617
	C600.013733,418.169617 601.642151,418.169617 603.784546,418.169617
	C603.602173,423.450958 605.503540,427.485992 611.380981,428.814270
	C615.359924,429.713470 618.085693,428.295563 620.353333,424.909119
	C621.839600,426.671631 623.199280,428.284088 624.564148,429.902710
	C619.344543,435.252808 619.840393,442.139099 626.387939,444.999390
M606.203308,430.000854
	C603.046082,429.914917 599.764099,429.229736 596.755310,429.856415
	C588.033508,431.672974 582.949402,437.888977 581.207642,446.078918
	C579.622314,453.533203 583.134827,459.988129 589.096680,464.495056
	C596.572937,470.146881 602.570374,470.916931 611.087585,465.903625
	C617.868713,461.912109 622.281128,452.207977 620.459351,445.554230
	C618.337708,437.804993 613.748413,433.256409 606.203308,430.000854
z"/>
<path fill="#000000" opacity="1.000000" stroke="none"
	d="
M941.995605,679.102417
	C941.153198,680.037231 940.318176,680.928711 939.474854,680.936646
	C929.164429,681.032715 918.852722,680.999146 908.533142,680.999146
	C909.118530,668.605713 917.989136,663.840881 926.457336,663.136108
	C934.469849,662.469360 941.365723,669.835266 941.995605,679.102417
z"/>
<path fill="#000000" opacity="1.000000" stroke="none"
	d="
M489.873230,691.999939
	C492.367310,691.612671 494.408752,691.225403 496.998810,690.734131
	C496.998810,695.067444 498.183441,699.557007 496.680176,702.801025
	C495.033386,706.354797 491.329254,709.598755 487.732483,711.414185
	C484.501129,713.045166 480.204193,712.865295 476.369446,712.918762
	C472.257355,712.976135 469.844604,710.323181 469.044708,706.444031
	C468.116730,701.943787 469.590118,697.870239 473.789795,696.190430
	C478.763123,694.201294 484.190186,693.346497 489.873230,691.999939
z"/>
<path fill="#F7F3E8" opacity="1.000000" stroke="none"
	d="
M660.240479,511.343109
	C665.613098,505.877380 670.784912,500.707916 676.560608,494.934814
	C670.998901,489.572388 665.512146,484.282257 659.734741,478.711853
	C661.782043,477.016632 663.813538,475.334534 665.991028,473.531555
	C671.720154,479.261169 677.885559,485.511841 684.154602,491.656708
	C686.816589,494.265961 686.918396,496.616272 684.243225,499.258820
	C677.970764,505.454712 671.772278,511.725464 665.300781,518.209534
	C663.490967,515.949402 661.765320,513.794373 660.240479,511.343109
z"/>
<path fill="#F7F3E8" opacity="1.000000" stroke="none"
	d="
M527.249817,482.250000
	C530.420959,479.033508 533.342041,476.066956 536.404785,472.956604
	C538.309814,474.947571 540.108276,476.827118 541.669800,478.459076
	C536.296570,483.709778 530.865723,489.016724 525.523743,494.236877
	C531.776184,500.432953 537.135010,505.743561 542.902588,511.459137
	C540.080566,513.604553 537.869812,515.285339 535.534607,517.060730
	C530.232117,511.741119 524.050598,505.469513 517.783203,499.285004
	C515.112305,496.649414 515.119812,494.273376 517.820679,491.683594
	C520.944031,488.688812 523.945435,485.566711 527.249817,482.250000
z"/>
<path fill="#F7F3E8" opacity="1.000000" stroke="none"
	d="
M606.616333,430.010559
	C613.748413,433.256409 618.337708,437.804993 620.459351,445.554230
	C622.281128,452.207977 617.868713,461.912109 611.087585,465.903625
	C602.570374,470.916931 596.572937,470.146881 589.096680,464.495056
	C583.134827,459.988129 579.622314,453.533203 581.207642,446.078918
	C582.949402,437.888977 588.033508,431.672974 596.755310,429.856415
	C599.764099,429.229736 603.046082,429.914917 606.616333,430.010559
M600.566528,459.999817
	C602.399963,459.486115 604.331909,459.190704 606.047791,458.416443
	C610.613953,456.356018 612.253174,452.383453 611.932190,447.715454
	C611.613525,443.079468 607.419373,438.615967 603.411316,438.007965
	C597.745544,437.148529 594.357544,438.816620 591.710999,443.768402
	C587.689331,451.293365 590.469971,456.911926 600.566528,459.999817
z"/>
<path fill="#000000" opacity="1.000000" stroke="none"
	d="
M600.154785,459.998901
	C590.469971,456.911926 587.689331,451.293365 591.710999,443.768402
	C594.357544,438.816620 597.745544,437.148529 603.411316,438.007965
	C607.419373,438.615967 611.613525,443.079468 611.932190,447.715454
	C612.253174,452.383453 610.613953,456.356018 606.047791,458.416443
	C604.331909,459.190704 602.399963,459.486115 600.154785,459.998901
z"/>
</svg>
