<?xml version="1.0" encoding="UTF-8" standalone="no"?>
<!-- Created with Inkscape (http://www.inkscape.org/) -->

<svg
   xmlns:dc="http://purl.org/dc/elements/1.1/"
   xmlns:cc="http://creativecommons.org/ns#"
   xmlns:rdf="http://www.w3.org/1999/02/22-rdf-syntax-ns#"
   xmlns:svg="http://www.w3.org/2000/svg"
   xmlns="http://www.w3.org/2000/svg"
   xmlns:xlink="http://www.w3.org/1999/xlink"
   xmlns:sodipodi="http://sodipodi.sourceforge.net/DTD/sodipodi-0.dtd"
   xmlns:inkscape="http://www.inkscape.org/namespaces/inkscape"
   width="9.050806mm"
   height="9.050806mm"
   viewBox="0 0 32.069785 32.069785"
   id="svg2"
   version="1.1"
   inkscape:version="0.91 r13725"
   shape-rendering="crispEdges"
   sodipodi:docname="teles-bot.svg">
  <defs
     id="defs4">
    <defs
       id="defs3339">
      <circle
         id="SVGID_1_"
         cx="32.299999"
         cy="32.799999"
         r="31.1" />
    </defs>
    <clipPath
       id="SVGID_2_">
      <use
         height="100%"
         width="100%"
         y="0"
         x="0"
         style="overflow:visible"
         xlink:href="#SVGID_1_"
         overflow="visible"
         id="use3345" />
    </clipPath>
    <clipPath
       clipPathUnits="userSpaceOnUse"
       id="clipPath4582">
      <rect
         style="opacity:1;fill:#ff9955;fill-opacity:1;stroke:none;stroke-width:1.31500006;stroke-miterlimit:4;stroke-dasharray:none;stroke-dashoffset:0;stroke-opacity:1"
         id="rect4584"
         width="32.069786"
         height="32.069786"
         x="-576.20862"
         y="4.4537921" />
    </clipPath>
  </defs>
  <sodipodi:namedview
     id="base"
     pagecolor="#ffffff"
     bordercolor="#666666"
     borderopacity="1.0"
     inkscape:pageopacity="0.0"
     inkscape:pageshadow="2"
     inkscape:zoom="7.5201493"
     inkscape:cx="40.875632"
     inkscape:cy="9.9984713"
     inkscape:document-units="px"
     inkscape:current-layer="layer1"
     showgrid="false"
     fit-margin-top="0"
     fit-margin-left="0"
     fit-margin-right="0"
     fit-margin-bottom="0"
     inkscape:showpageshadow="false"
     inkscape:window-width="1366"
     inkscape:window-height="692"
     inkscape:window-x="0"
     inkscape:window-y="24"
     inkscape:window-maximized="1" />
  <metadata
     id="metadata7">
    <rdf:RDF>
      <cc:Work
         rdf:about="">
        <dc:format>image/svg+xml</dc:format>
        <dc:type
           rdf:resource="http://purl.org/dc/dcmitype/StillImage" />
        <dc:title></dc:title>
      </cc:Work>
    </rdf:RDF>
  </metadata>
  <g
     inkscape:label="Camada 1"
     inkscape:groupmode="layer"
     id="layer1"
     transform="translate(576.20862,-4.4537921)">
    <rect
       y="4.4537921"
       x="-576.20862"
       height="32.069786"
       width="32.069786"
       id="rect4526"
       style="opacity:1;fill:#ff9955;fill-opacity:1;stroke:none;stroke-width:1.31500006;stroke-miterlimit:4;stroke-dasharray:none;stroke-dashoffset:0;stroke-opacity:1" />
    <g
       id="g4528"
       clip-path="url(#clipPath4582)">
      <path
         id="path3383"
         d="m -553.2,41.276491 -14.1,0 0,-10.7 c 0,-0.2 0.2,-0.4 0.4,-0.4 l 13.3,0 c 0.2,0 0.4,0.2 0.4,0.4 l 0,10.7 z"
         stroke-miterlimit="10"
         inkscape:connector-curvature="0"
         style="fill:none;stroke:#205281;stroke-linejoin:round;stroke-miterlimit:10" />
      <path
         id="path3385"
         d="m -552.9,51.276491 -14.6,0 0,-22.6 c 0,-0.9 0.8,-1.7 1.7,-1.7 l 11.2,0 c 0.9,0 1.7,0.8 1.7,1.7 l 0,22.6 z"
         stroke-miterlimit="10"
         inkscape:connector-curvature="0"
         style="fill:#ffffff;stroke:#205281;stroke-miterlimit:10" />
      <path
         id="path3387"
         d="m -570.1,51.276491 2.6,0 0,-23.5 0,0 c -1.5,0 -2.6,1.2 -2.6,2.6 l 0,20.9 z"
         stroke-miterlimit="10"
         inkscape:connector-curvature="0"
         style="fill:#e9e8e7;stroke:#205281;stroke-miterlimit:10" />
      <path
         id="path3389"
         d="m -550.3,51.276491 -2.6,0 0,-23.5 0,0 c 1.5,0 2.6,1.2 2.6,2.6 l 0,20.9 z"
         stroke-miterlimit="10"
         inkscape:connector-curvature="0"
         style="fill:#e9e8e7;stroke:#205281;stroke-miterlimit:10" />
      <g
         transform="translate(-572.3,-14.723509)"
         id="g3397">
        <g
           id="g3399">
          <path
             style="fill:#e9e8e7;stroke:#205281;stroke-miterlimit:10"
             inkscape:connector-curvature="0"
             stroke-miterlimit="10"
             d="m 6.8,34.5 -1.2,0 c -0.4,0 -0.8,-0.3 -0.8,-0.8 l 0,-2.4 c 0,-0.4 0.3,-0.8 0.8,-0.8 l 1.2,0 0,4 z"
             id="path3401" />
          <path
             style="fill:#e9e8e7;stroke:#205281;stroke-miterlimit:10"
             inkscape:connector-curvature="0"
             stroke-miterlimit="10"
             d="m 18.4,34.5 -1.2,0 0,-4 1.2,0 c 0.4,0 0.8,0.3 0.8,0.8 l 0,2.4 c 0,0.5 -0.4,0.8 -0.8,0.8 z"
             id="path3403" />
          <path
             style="fill:#ffffff;stroke:#205281;stroke-miterlimit:10"
             inkscape:connector-curvature="0"
             stroke-miterlimit="10"
             d="m 16.7,38.4 -9.2,0 c -0.5,0 -1,-0.4 -1,-1 l 0,-8.9 c 0,-0.5 0.4,-1 1,-1 l 9.3,0 c 0.5,0 1,0.4 1,1 l 0,8.9 c -0.1,0.6 -0.6,1 -1.1,1 z"
             id="path3405" />
          <circle
             style="fill:#205281"
             cx="9.8999996"
             cy="31.299999"
             r="1.1"
             id="circle3407" />
          <circle
             style="fill:#205281"
             cx="14.3"
             cy="31.299999"
             r="1.1"
             id="circle3409" />
          <rect
             style="fill:#e9e8e7;stroke:#205281;stroke-miterlimit:10"
             x="8.3999996"
             y="38.400002"
             stroke-miterlimit="10"
             width="7.5"
             height="3.2"
             id="rect3411" />
          <line
             style="fill:none;stroke:#205281;stroke-linejoin:round;stroke-miterlimit:10"
             stroke-miterlimit="10"
             x1="12.1"
             y1="23.200001"
             x2="12.1"
             y2="27.6"
             id="line3413" />
          <circle
             style="fill:#5aacde;stroke:#205281;stroke-miterlimit:10"
             stroke-miterlimit="10"
             cx="12.1"
             cy="23.700001"
             r="1.4"
             id="circle3415" />
        </g>
        <path
           style="fill:#416592"
           inkscape:connector-curvature="0"
           d="m 13.3,35.2 c 0,0.7 -0.6,1.3 -1.3,1.3 -0.7,0 -1.3,-0.6 -1.3,-1.3 0,-0.7 0.6,-0.1 1.3,-0.1 0.7,0 1.3,-0.6 1.3,0.1 z"
           id="path3417" />
      </g>
      <path
         inkscape:connector-curvature="0"
         id="path4513"
         d="m -562.84313,31.507805 0,0.992811 1.98664,0 0,2.93711 1.16113,0 0,-2.93711 1.98764,0 0,-0.992811 -5.13541,0 z"
         style="font-style:normal;font-variant:normal;font-weight:normal;font-stretch:normal;font-size:medium;line-height:125%;font-family:'Ubuntu Condensed';-inkscape-font-specification:'Ubuntu Condensed, ';letter-spacing:0px;word-spacing:0px;fill:#416592;fill-opacity:1;stroke:none;stroke-width:1px;stroke-linecap:butt;stroke-linejoin:miter;stroke-opacity:1" />
    </g>
  </g>
</svg>
